<?xml version="1.0" encoding="utf-8"?>
<!-- Generator: Adobe Illustrator 25.0.0, SVG Export Plug-In . SVG Version: 6.00 Build 0)  -->
<svg version="1.1" xmlns="http://www.w3.org/2000/svg" xmlns:xlink="http://www.w3.org/1999/xlink" x="0px" y="0px"
	 viewBox="0 0 770.7 139.6" style="enable-background:new 0 0 770.7 139.6;" xml:space="preserve">
<style type="text/css">
	.st0{fill:#E01E5A;}
	.st1{fill:#36C5F0;}
	.st2{fill:#2EB67D;}
	.st3{fill:#ECB22E;}
</style>
<g id="clear_space">
</g>
<g id="template">
	<g>
		<path d="M124.5,90.4l3.5-8.2c3.8,2.8,8.9,4.3,13.9,4.3c3.7,0,6-1.4,6-3.6c-0.1-6-22.2-1.3-22.3-16.5c-0.1-7.7,6.8-13.6,16.5-13.6
			c5.8,0,11.5,1.4,15.6,4.7l-3.3,8.4c-3.8-2.4-8.4-4.1-12.9-4.1c-3,0-5,1.4-5,3.3c0.1,5.9,22.3,2.7,22.6,17.2
			c0,7.9-6.7,13.4-16.2,13.4C135.9,95.6,129.4,93.9,124.5,90.4"/>
		<path d="M260.2,79.2c-1.8,3.1-5.1,5.2-8.9,5.2c-5.6,0-10.2-4.6-10.2-10.2S245.6,64,251.3,64c3.8,0,7.1,2.1,8.9,5.2l9.8-5.4
			c-3.7-6.5-10.6-10.9-18.7-10.9c-11.8,0-21.4,9.6-21.4,21.4c0,11.8,9.6,21.4,21.4,21.4c8,0,15-4.4,18.7-10.9L260.2,79.2z"/>
		<rect x="164" y="35" width="12.2" height="59.7"/>
		<polygon points="274.7,35 274.7,94.7 286.9,94.7 286.9,76.8 301.4,94.7 317,94.7 298.6,73.5 315.7,53.6 300.7,53.6 286.9,70.1 
			286.9,35 		"/>
		<path d="M212.5,79.3c-1.8,2.9-5.4,5.1-9.5,5.1c-5.6,0-10.2-4.6-10.2-10.2S197.3,64,202.9,64c4.1,0,7.8,2.3,9.5,5.3V79.3z
			 M212.5,53.6v4.9c-2-3.3-6.9-5.7-12.1-5.7c-10.7,0-19.2,9.5-19.2,21.3c0,11.9,8.4,21.4,19.2,21.4c5.2,0,10.1-2.3,12.1-5.7v4.9
			h12.2V53.6H212.5z"/>
	</g>
	<g>
		<path class="st0" d="M49,79.2c0,4.2-3.4,7.5-7.5,7.5s-7.5-3.4-7.5-7.5s3.4-7.5,7.5-7.5H49V79.2z"/>
		<path class="st0" d="M52.8,79.2c0-4.2,3.4-7.5,7.5-7.5s7.5,3.4,7.5,7.5v18.9c0,4.2-3.4,7.5-7.5,7.5s-7.5-3.4-7.5-7.5V79.2z"/>
	</g>
	<g>
		<path class="st1" d="M60.4,49c-4.2,0-7.5-3.4-7.5-7.5s3.4-7.5,7.5-7.5s7.5,3.4,7.5,7.5V49H60.4z"/>
		<path class="st1" d="M60.4,52.8c4.2,0,7.5,3.4,7.5,7.5s-3.4,7.5-7.5,7.5H41.5c-4.2,0-7.5-3.4-7.5-7.5s3.4-7.5,7.5-7.5H60.4z"/>
	</g>
	<g>
		<path class="st2" d="M90.5,60.4c0-4.2,3.4-7.5,7.5-7.5c4.2,0,7.5,3.4,7.5,7.5s-3.4,7.5-7.5,7.5h-7.5V60.4z"/>
		<path class="st2" d="M86.8,60.4c0,4.2-3.4,7.5-7.5,7.5s-7.5-3.4-7.5-7.5V41.5c0-4.2,3.4-7.5,7.5-7.5s7.5,3.4,7.5,7.5V60.4z"/>
	</g>
	<g>
		<path class="st3" d="M79.2,90.5c4.2,0,7.5,3.4,7.5,7.5c0,4.2-3.4,7.5-7.5,7.5s-7.5-3.4-7.5-7.5v-7.5H79.2z"/>
		<path class="st3" d="M79.2,86.8c-4.2,0-7.5-3.4-7.5-7.5s3.4-7.5,7.5-7.5h18.9c4.2,0,7.5,3.4,7.5,7.5s-3.4,7.5-7.5,7.5H79.2z"/>
	</g>
	<g>
		<path class="st0" d="M49,79.2c0,4.2-3.4,7.5-7.5,7.5s-7.5-3.4-7.5-7.5s3.4-7.5,7.5-7.5H49V79.2z"/>
		<path class="st0" d="M52.8,79.2c0-4.2,3.4-7.5,7.5-7.5s7.5,3.4,7.5,7.5v18.9c0,4.2-3.4,7.5-7.5,7.5s-7.5-3.4-7.5-7.5V79.2z"/>
	</g>
	<g>
		<path class="st1" d="M60.3,49c-4.2,0-7.5-3.4-7.5-7.5s3.4-7.5,7.5-7.5s7.5,3.4,7.5,7.5V49H60.3z"/>
		<path class="st1" d="M60.3,52.8c4.2,0,7.5,3.4,7.5,7.5s-3.4,7.5-7.5,7.5H41.5c-4.2,0-7.5-3.4-7.5-7.5s3.4-7.5,7.5-7.5H60.3z"/>
	</g>
	<g>
		<path class="st2" d="M90.5,60.4c0-4.2,3.4-7.5,7.5-7.5c4.2,0,7.5,3.4,7.5,7.5s-3.4,7.5-7.5,7.5h-7.5V60.4z"/>
		<path class="st2" d="M86.7,60.4c0,4.2-3.4,7.5-7.5,7.5c-4.2,0-7.5-3.4-7.5-7.5V41.5c0-4.2,3.4-7.5,7.5-7.5c4.2,0,7.5,3.4,7.5,7.5
			V60.4z"/>
	</g>
	<g>
		<path class="st3" d="M79.2,90.5c4.2,0,7.5,3.4,7.5,7.5c0,4.2-3.4,7.5-7.5,7.5c-4.2,0-7.5-3.4-7.5-7.5v-7.5H79.2z"/>
		<path class="st3" d="M79.2,86.8c-4.2,0-7.5-3.4-7.5-7.5s3.4-7.5,7.5-7.5h18.9c4.2,0,7.5,3.4,7.5,7.5s-3.4,7.5-7.5,7.5H79.2z"/>
	</g>
	<g>
		<path d="M373.3,71.1v23.6h-6.2V71.9c0-7.9-4.8-13.1-12-13.1c-5.4,0-10.6,2.8-13.1,7.3v28.6h-6.2V35.6h6.2v24.5
			c2.7-4.5,8.4-7.3,14.4-7.3C366.5,52.8,373.3,60,373.3,71.1z"/>
		<path d="M420.2,74.9h-34.3c0.5,9.1,6.7,15.1,15.1,15.1c5.9,0,11-2.5,13.3-6.8l4.9,3.1c-3.1,5.7-10,9.2-18.4,9.2
			c-11.6,0-20.9-9.2-20.9-21.6c0-11.8,9.2-21.1,20.9-21.1c11.1,0,19.6,8.5,19.6,19.5C420.4,73.1,420.3,74,420.2,74.9z M414.1,70
			c-0.5-7-6.2-12.1-13.5-12.1c-7.3,0-12.8,4.9-14.3,12.1H414.1z"/>
		<path d="M433.6,94.7h-6.2V35.6h6.2V94.7z"/>
		<path d="M484,74.2c0,12.1-8.9,21.4-20.4,21.4c-6,0-12.1-3.1-14.4-7.3v22H443V53.7h6.2V60c2.4-4.1,8.5-7.2,14.4-7.2
			C475.2,52.8,484,62,484,74.2z M477.9,74.2c0-9-6.7-15.6-15.5-15.6c-5.4,0-10.9,3.1-13.3,7.5v16.1c2.4,4.4,7.9,7.5,13.3,7.5
			C471.3,89.7,477.9,83.1,477.9,74.2z"/>
		<path d="M525.8,95.5c-11.9,0-21.3-9.3-21.3-21.4s9.3-21.4,21.3-21.4c7.9,0,14.5,3.9,17.2,9.9l-5.2,2.8c-1.8-4.1-6.5-6.8-12-6.8
			c-8.7,0-15.2,6.8-15.2,15.5c0,8.7,6.6,15.5,15.2,15.5c5.8,0,10.7-2.7,13.1-7.3l5.3,2.5C541,91.4,534.1,95.5,525.8,95.5z"/>
		<path d="M587.4,74.9h-34.3c0.5,9.1,6.7,15.1,15.1,15.1c5.9,0,11-2.5,13.3-6.8l4.9,3.1c-3.1,5.7-10,9.2-18.4,9.2
			c-11.6,0-20.9-9.2-20.9-21.6c0-11.8,9.2-21.1,20.9-21.1c11.1,0,19.6,8.5,19.6,19.5C587.5,73.1,587.4,74,587.4,74.9z M581.2,70
			C580.7,63,575,58,567.7,58c-7.3,0-12.8,4.9-14.3,12.1H581.2z"/>
		<path d="M631.9,71.1v23.6h-6.2V71.9c0-7.9-4.8-13.1-12-13.1c-5.4,0-10.6,2.8-13.1,7.3v28.6h-6.2v-41h6.2v6.4
			c2.7-4.5,8.4-7.3,14.4-7.3C625.2,52.8,631.9,60,631.9,71.1z"/>
		<path d="M661.3,94.4c-1.1,0.4-2.5,0.7-3.9,0.7c-8.3,0-14.2-5.3-14.2-14.8V59.4h-8.2v-5.7h8.2V42.3h6.1v11.3h11.6v5.7h-11.6v20.7
			c0,6,3.9,9.4,8.9,9.4c0.8,0,1.9-0.2,2.7-0.4L661.3,94.4z"/>
		<path d="M702.8,74.9h-34.3c0.5,9.1,6.7,15.1,15.1,15.1c5.9,0,11-2.5,13.3-6.8l4.9,3.1c-3.1,5.7-10,9.2-18.4,9.2
			c-11.6,0-20.9-9.2-20.9-21.6c0-11.8,9.2-21.1,20.9-21.1c11.1,0,19.6,8.5,19.6,19.5C703,73.1,702.9,74,702.8,74.9z M696.7,70
			c-0.5-7-6.2-12.1-13.5-12.1c-7.3,0-12.8,4.9-14.3,12.1H696.7z"/>
		<path d="M731.7,53.4l-0.3,5.8c-1.3-0.5-3-0.8-4.4-0.8c-3.6,0-8.2,3-10.8,7.9v28.3H710v-41h6.2v6.5c2.3-4.5,7-7.3,11.2-7.3
			C729.1,52.8,730.6,53.1,731.7,53.4z"/>
	</g>
</g>
</svg>
